%
M48
M72
T01C0.02362
T02C0.02400
T03C0.02756
T04C0.03150
T05C0.03543
T06C0.03937
T07C0.04000
T08C0.04331
T09C0.04400
T10C0.04700
T11C0.04724
T12C0.05118
T13C0.09843
T14C0.13000
%
T01
X52750Y91000
X52750Y91000
X57750Y146000
X60250Y156000
X80250Y151000
X90250Y143500
X117750Y156000
X117750Y156000
X142750Y152250
X151500Y143500
X142750Y136000
X157750Y133500
X152750Y123500
X140250Y116000
X169000Y124750
X167750Y138500
X182750Y138500
X175250Y153500
X170250Y158500
X162750Y163500
X185250Y181000
X187750Y186000
X192750Y191000
X195250Y198500
X201500Y191000
X220250Y168500
X227750Y166000
X240250Y168500
X247750Y178500
X240250Y188500
X235250Y183500
X236500Y207250
X220250Y226000
X251500Y241000
X250250Y246000
X257750Y266000
X265250Y264750
X247750Y268500
X280250Y246000
X285250Y257250
X254000Y328500
X222750Y314750
X222750Y314750
X202750Y298500
X181500Y319750
X181500Y372250
X197750Y393500
X212750Y376000
X245250Y373500
X252750Y393500
X277750Y371000
X300250Y371000
X305250Y348500
X342750Y458500
X350250Y461000
X317750Y468500
X245250Y501000
X237750Y501000
X227750Y518500
X215250Y503500
X232750Y476000
X205250Y448500
X204000Y472250
X182750Y498500
X150250Y506000
X187750Y548500
X60250Y386000
X105250Y341000
X110250Y366000
X140250Y356000
X110250Y281000
X107750Y271000
X110250Y258500
X110250Y258500
X105250Y243500
X105250Y243500
X121500Y246000
X125250Y241000
X125250Y241000
X127750Y233500
X135250Y209750
X147750Y203500
X165250Y228500
X175250Y208500
X175250Y208500
X155250Y251000
X155250Y251000
X190250Y256000
X190250Y256000
X272750Y133500
X232750Y123500
X202750Y108500
X187750Y121000
X177750Y61000
X105250Y108500
X40250Y183500
X27750Y181000
X44000Y197250
X10250Y243500
X337750Y148500
X352750Y171000
X345250Y123500
T02
X262750Y221000
X262750Y241000
T03
X242750Y273500
X242750Y273500
X225250Y256000
X222750Y251000
X225250Y244750
X212750Y238500
X212750Y238500
X210250Y243500
X202750Y228500
X195250Y223500
X147750Y168500
X140250Y171000
X140250Y171000
X122750Y153500
X122750Y153500
X102750Y121000
X25250Y96000
X317750Y268500
X317750Y268500
X382750Y258500
T04
X17750Y228500
T05
X87750Y336000
X87750Y356000
X117750Y356000
X117750Y336000
X157750Y336000
X157750Y356000
X187750Y356000
X187750Y336000
X227750Y336000
X227750Y356000
X257750Y356000
X257750Y336000
X297750Y336000
X297750Y356000
X327750Y356000
X327750Y336000
T06
X236766Y532024
X226766Y532024
X216766Y532024
X206766Y532024
X196766Y532024
X186766Y532024
X176766Y532024
X166766Y532024
X156766Y532024
X146766Y532024
X136766Y532024
X126766Y532024
X116766Y532024
X106766Y532024
X96766Y532024
X86766Y532024
T07
X92750Y281000
X92750Y271000
X92750Y261000
X92750Y251000
X92750Y241000
X92750Y231000
X92750Y221000
X92750Y211000
X182750Y91000
X192750Y91000
X202750Y91000
X212750Y91000
X222750Y91000
X232750Y91000
X242750Y91000
X252750Y91000
X250250Y146000
X240250Y146000
X230250Y146000
X220250Y146000
X210250Y146000
X260250Y146000
T08
X227750Y306000
X257750Y366000
X297750Y306000
X327750Y366000
X187750Y366000
X157750Y306000
X117750Y366000
X87750Y306000
T09
X352750Y156000
X352750Y146000
X352750Y136000
T10
X55250Y31000
X55250Y51000
X137750Y38500
X157750Y38500
X177750Y38500
X197750Y38500
X217750Y38500
X237750Y38500
X257750Y38500
X277750Y38500
X297750Y38500
X362750Y261157
X362750Y280843
X42750Y275843
X42750Y256157
T11
X37750Y131000
X27750Y131000
X32750Y111000
X42750Y111000
X52750Y111000
X62750Y111000
X72750Y111000
X82750Y111000
X92750Y111000
X87750Y131000
X77750Y131000
X67750Y131000
X57750Y131000
X47750Y131000
X97750Y131000
T12
X132317Y102811
X132317Y91000
X132317Y79189
X153183Y79189
X153183Y91000
X153183Y102811
T13
X65112Y409976
X65112Y532024
X360388Y532024
X360388Y409976
T14
X411750Y146000
M30
