G75*
%MOIN*%
%OFA0B0*%
%FSLAX25Y25*%
%IPPOS*%
%LPD*%
%AMOC8*
5,1,8,0,0,1.08239X$1,22.5*
%
%ADD10C,0.06800*%
%ADD11R,0.06706X0.05918*%
%ADD12R,0.05918X0.06706*%
%ADD13C,0.07400*%
%ADD14C,0.10643*%
%ADD15R,0.06706X0.06706*%
%ADD16C,0.05131*%
%ADD17R,0.02178X0.06706*%
%ADD18R,0.06706X0.02178*%
%ADD19C,0.07400*%
%ADD20C,0.13800*%
%ADD21C,0.07887*%
%ADD22C,0.07850*%
%ADD23C,0.05200*%
%ADD24C,0.08477*%
%ADD25R,0.07887X0.05131*%
%ADD26R,0.04762X0.04762*%
%ADD27R,0.05156X0.05156*%
%ADD28R,0.05550X0.05550*%
D10*
X0089750Y0211000D02*
X0095750Y0211000D01*
X0095750Y0221000D02*
X0089750Y0221000D01*
X0089750Y0231000D02*
X0095750Y0231000D01*
X0095750Y0241000D02*
X0089750Y0241000D01*
X0089750Y0251000D02*
X0095750Y0251000D01*
X0095750Y0261000D02*
X0089750Y0261000D01*
X0089750Y0271000D02*
X0095750Y0271000D01*
X0095750Y0281000D02*
X0089750Y0281000D01*
X0210250Y0149000D02*
X0210250Y0143000D01*
X0220250Y0143000D02*
X0220250Y0149000D01*
X0230250Y0149000D02*
X0230250Y0143000D01*
X0240250Y0143000D02*
X0240250Y0149000D01*
X0250250Y0149000D02*
X0250250Y0143000D01*
X0260250Y0143000D02*
X0260250Y0149000D01*
X0252750Y0094000D02*
X0252750Y0088000D01*
X0242750Y0088000D02*
X0242750Y0094000D01*
X0232750Y0094000D02*
X0232750Y0088000D01*
X0222750Y0088000D02*
X0222750Y0094000D01*
X0212750Y0094000D02*
X0212750Y0088000D01*
X0202750Y0088000D02*
X0202750Y0094000D01*
X0192750Y0094000D02*
X0192750Y0088000D01*
X0182750Y0088000D02*
X0182750Y0094000D01*
D11*
X0297750Y0234760D03*
X0297750Y0242240D03*
X0337750Y0164740D03*
X0337750Y0157260D03*
X0337750Y0139740D03*
X0337750Y0132260D03*
X0202750Y0282260D03*
X0202750Y0289740D03*
X0162750Y0282240D03*
X0162750Y0274760D03*
X0140250Y0274760D03*
X0140250Y0282240D03*
X0057750Y0204740D03*
X0057750Y0197260D03*
X0057750Y0179740D03*
X0057750Y0172260D03*
D12*
X0146510Y0216000D03*
X0153990Y0216000D03*
X0153990Y0231000D03*
X0146510Y0231000D03*
X0149010Y0381000D03*
X0156490Y0381000D03*
X0184010Y0381000D03*
X0191490Y0381000D03*
X0224010Y0381000D03*
X0231490Y0381000D03*
X0254010Y0381000D03*
X0261490Y0381000D03*
X0289010Y0381000D03*
X0296490Y0381000D03*
X0324010Y0381000D03*
X0331490Y0381000D03*
X0271490Y0201000D03*
X0264010Y0201000D03*
X0121490Y0381000D03*
X0114010Y0381000D03*
X0086490Y0381000D03*
X0079010Y0381000D03*
D13*
X0086766Y0532024D03*
X0096766Y0532024D03*
X0106766Y0532024D03*
X0116766Y0532024D03*
X0126766Y0532024D03*
X0136766Y0532024D03*
X0146766Y0532024D03*
X0156766Y0532024D03*
X0166766Y0532024D03*
X0176766Y0532024D03*
X0186766Y0532024D03*
X0196766Y0532024D03*
X0206766Y0532024D03*
X0216766Y0532024D03*
X0226766Y0532024D03*
X0236766Y0532024D03*
D14*
X0360388Y0532024D03*
X0360388Y0409976D03*
X0065112Y0409976D03*
X0065112Y0532024D03*
D15*
X0087750Y0356000D03*
X0087750Y0336000D03*
X0117750Y0336000D03*
X0117750Y0356000D03*
X0157750Y0356000D03*
X0157750Y0336000D03*
X0187750Y0336000D03*
X0187750Y0356000D03*
X0227750Y0356000D03*
X0227750Y0336000D03*
X0257750Y0336000D03*
X0257750Y0356000D03*
X0297750Y0356000D03*
X0297750Y0336000D03*
X0327750Y0336000D03*
X0327750Y0356000D03*
D16*
X0327750Y0366000D03*
X0297750Y0306000D03*
X0257750Y0366000D03*
X0227750Y0306000D03*
X0187750Y0366000D03*
X0157750Y0306000D03*
X0117750Y0366000D03*
X0087750Y0306000D03*
D17*
X0184128Y0272496D03*
X0186096Y0272496D03*
X0188065Y0272496D03*
X0190033Y0272496D03*
X0192002Y0272496D03*
X0193970Y0272496D03*
X0195939Y0272496D03*
X0197907Y0272496D03*
X0199876Y0272496D03*
X0201844Y0272496D03*
X0203813Y0272496D03*
X0205781Y0272496D03*
X0207750Y0272496D03*
X0209719Y0272496D03*
X0211687Y0272496D03*
X0213656Y0272496D03*
X0215624Y0272496D03*
X0217593Y0272496D03*
X0219561Y0272496D03*
X0221530Y0272496D03*
X0223498Y0272496D03*
X0225467Y0272496D03*
X0227435Y0272496D03*
X0229404Y0272496D03*
X0231372Y0272496D03*
X0231372Y0209504D03*
X0229404Y0209504D03*
X0227435Y0209504D03*
X0225467Y0209504D03*
X0223498Y0209504D03*
X0221530Y0209504D03*
X0219561Y0209504D03*
X0217593Y0209504D03*
X0215624Y0209504D03*
X0213656Y0209504D03*
X0211687Y0209504D03*
X0209719Y0209504D03*
X0207750Y0209504D03*
X0205781Y0209504D03*
X0203813Y0209504D03*
X0201844Y0209504D03*
X0199876Y0209504D03*
X0197907Y0209504D03*
X0195939Y0209504D03*
X0193970Y0209504D03*
X0192002Y0209504D03*
X0190033Y0209504D03*
X0188065Y0209504D03*
X0186096Y0209504D03*
X0184128Y0209504D03*
D18*
X0176254Y0217378D03*
X0176254Y0219346D03*
X0176254Y0221315D03*
X0176254Y0223283D03*
X0176254Y0225252D03*
X0176254Y0227220D03*
X0176254Y0229189D03*
X0176254Y0231157D03*
X0176254Y0233126D03*
X0176254Y0235094D03*
X0176254Y0237063D03*
X0176254Y0239031D03*
X0176254Y0241000D03*
X0176254Y0242969D03*
X0176254Y0244937D03*
X0176254Y0246906D03*
X0176254Y0248874D03*
X0176254Y0250843D03*
X0176254Y0252811D03*
X0176254Y0254780D03*
X0176254Y0256748D03*
X0176254Y0258717D03*
X0176254Y0260685D03*
X0176254Y0262654D03*
X0176254Y0264622D03*
X0239246Y0264622D03*
X0239246Y0262654D03*
X0239246Y0260685D03*
X0239246Y0258717D03*
X0239246Y0256748D03*
X0239246Y0254780D03*
X0239246Y0252811D03*
X0239246Y0250843D03*
X0239246Y0248874D03*
X0239246Y0246906D03*
X0239246Y0244937D03*
X0239246Y0242969D03*
X0239246Y0241000D03*
X0239246Y0239031D03*
X0239246Y0237063D03*
X0239246Y0235094D03*
X0239246Y0233126D03*
X0239246Y0231157D03*
X0239246Y0229189D03*
X0239246Y0227220D03*
X0239246Y0225252D03*
X0239246Y0223283D03*
X0239246Y0221315D03*
X0239246Y0219346D03*
X0239246Y0217378D03*
D19*
X0349450Y0156000D02*
X0356050Y0156000D01*
X0356050Y0146000D02*
X0349450Y0146000D01*
X0349450Y0136000D02*
X0356050Y0136000D01*
D20*
X0411750Y0146000D03*
D21*
X0097750Y0134543D02*
X0097750Y0127457D01*
X0087750Y0127457D02*
X0087750Y0134543D01*
X0077750Y0134543D02*
X0077750Y0127457D01*
X0072750Y0114543D02*
X0072750Y0107457D01*
X0082750Y0107457D02*
X0082750Y0114543D01*
X0092750Y0114543D02*
X0092750Y0107457D01*
X0067750Y0127457D02*
X0067750Y0134543D01*
X0057750Y0134543D02*
X0057750Y0127457D01*
X0047750Y0127457D02*
X0047750Y0134543D01*
X0037750Y0134543D02*
X0037750Y0127457D01*
X0027750Y0127457D02*
X0027750Y0134543D01*
X0032750Y0114543D02*
X0032750Y0107457D01*
X0042750Y0107457D02*
X0042750Y0114543D01*
X0052750Y0114543D02*
X0052750Y0107457D01*
X0062750Y0107457D02*
X0062750Y0114543D01*
D22*
X0058775Y0031000D02*
X0051725Y0031000D01*
X0051725Y0051000D02*
X0058775Y0051000D01*
X0137750Y0042025D02*
X0137750Y0034975D01*
X0157750Y0034975D02*
X0157750Y0042025D01*
X0177750Y0042025D02*
X0177750Y0034975D01*
X0197750Y0034975D02*
X0197750Y0042025D01*
X0217750Y0042025D02*
X0217750Y0034975D01*
X0237750Y0034975D02*
X0237750Y0042025D01*
X0257750Y0042025D02*
X0257750Y0034975D01*
X0277750Y0034975D02*
X0277750Y0042025D01*
X0297750Y0042025D02*
X0297750Y0034975D01*
X0359225Y0261157D02*
X0366275Y0261157D01*
X0366275Y0280843D02*
X0359225Y0280843D01*
X0046275Y0275843D02*
X0039225Y0275843D01*
X0039225Y0256157D02*
X0046275Y0256157D01*
D23*
X0260550Y0241000D02*
X0264950Y0241000D01*
X0264950Y0221000D02*
X0260550Y0221000D01*
D24*
X0153183Y0102811D03*
X0153183Y0091000D03*
X0153183Y0079189D03*
X0132317Y0079189D03*
X0132317Y0091000D03*
X0132317Y0102811D03*
D25*
X0099955Y0173717D03*
X0099955Y0188283D03*
X0075545Y0188283D03*
X0075545Y0173717D03*
D26*
X0060250Y0156000D03*
X0057750Y0146000D03*
X0080250Y0151000D03*
X0090250Y0143500D03*
X0117750Y0156000D03*
X0117750Y0156000D03*
X0142750Y0152250D03*
X0151500Y0143500D03*
X0142750Y0136000D03*
X0157750Y0133500D03*
X0152750Y0123500D03*
X0140250Y0116000D03*
X0169000Y0124750D03*
X0167750Y0138500D03*
X0182750Y0138500D03*
X0175250Y0153500D03*
X0170250Y0158500D03*
X0162750Y0163500D03*
X0185250Y0181000D03*
X0187750Y0186000D03*
X0192750Y0191000D03*
X0195250Y0198500D03*
X0201500Y0191000D03*
X0220250Y0168500D03*
X0227750Y0166000D03*
X0240250Y0168500D03*
X0247750Y0178500D03*
X0240250Y0188500D03*
X0235250Y0183500D03*
X0236500Y0207250D03*
X0220250Y0226000D03*
X0251500Y0241000D03*
X0250250Y0246000D03*
X0257750Y0266000D03*
X0265250Y0264750D03*
X0247750Y0268500D03*
X0280250Y0246000D03*
X0285250Y0257250D03*
X0254000Y0328500D03*
X0222750Y0314750D03*
X0222750Y0314750D03*
X0202750Y0298500D03*
X0181500Y0319750D03*
X0181500Y0372250D03*
X0197750Y0393500D03*
X0212750Y0376000D03*
X0245250Y0373500D03*
X0252750Y0393500D03*
X0277750Y0371000D03*
X0300250Y0371000D03*
X0305250Y0348500D03*
X0342750Y0458500D03*
X0350250Y0461000D03*
X0317750Y0468500D03*
X0245250Y0501000D03*
X0237750Y0501000D03*
X0227750Y0518500D03*
X0215250Y0503500D03*
X0232750Y0476000D03*
X0205250Y0448500D03*
X0204000Y0472250D03*
X0182750Y0498500D03*
X0150250Y0506000D03*
X0187750Y0548500D03*
X0060250Y0386000D03*
X0105250Y0341000D03*
X0110250Y0366000D03*
X0140250Y0356000D03*
X0110250Y0281000D03*
X0107750Y0271000D03*
X0110250Y0258500D03*
X0110250Y0258500D03*
X0105250Y0243500D03*
X0105250Y0243500D03*
X0121500Y0246000D03*
X0125250Y0241000D03*
X0125250Y0241000D03*
X0127750Y0233500D03*
X0135250Y0209750D03*
X0147750Y0203500D03*
X0165250Y0228500D03*
X0175250Y0208500D03*
X0175250Y0208500D03*
X0155250Y0251000D03*
X0155250Y0251000D03*
X0190250Y0256000D03*
X0190250Y0256000D03*
X0272750Y0133500D03*
X0232750Y0123500D03*
X0202750Y0108500D03*
X0187750Y0121000D03*
X0177750Y0061000D03*
X0105250Y0108500D03*
X0052750Y0091000D03*
X0052750Y0091000D03*
X0040250Y0183500D03*
X0027750Y0181000D03*
X0044000Y0197250D03*
X0010250Y0243500D03*
X0337750Y0148500D03*
X0352750Y0171000D03*
X0345250Y0123500D03*
D27*
X0382750Y0258500D03*
X0317750Y0268500D03*
X0317750Y0268500D03*
X0242750Y0273500D03*
X0242750Y0273500D03*
X0225250Y0256000D03*
X0222750Y0251000D03*
X0225250Y0244750D03*
X0212750Y0238500D03*
X0212750Y0238500D03*
X0210250Y0243500D03*
X0202750Y0228500D03*
X0195250Y0223500D03*
X0147750Y0168500D03*
X0140250Y0171000D03*
X0140250Y0171000D03*
X0122750Y0153500D03*
X0122750Y0153500D03*
X0102750Y0121000D03*
X0025250Y0096000D03*
D28*
X0017750Y0228500D03*
M02*
